# xmcd
#
# Track frame offsets:
#	225
#	19614
#	38966
#	59455
#	76984
#	94478
#	107126
#	125435
#	146523
#	167079
#	187326
#	201745
#	223800
#	244297
#	269233
#
# Disc length: 3874 seconds
#
# Revision: 0
# Processed by: cddbd v1.5PL3 Copyright (c) Steve Scherf et al.
# Submitted via: EasyCDDAExtractor 5.0.5.1
#
DISCID=f50f1f0f
DTITLE=Подуене блус бенд - Ден след ден
DYEAR=1999
DGENRE=Blues
TTITLE0=Ден след ден
TTITLE1=Ако се бях родил...
TTITLE2=Таратайка
TTITLE3=Предпазливо
TTITLE4=Блус бус /росинант/
TTITLE5=Светска хроника
TTITLE6=Пиленцата
TTITLE7=Добро утро, малка ученичке
TTITLE8=Любов и пари
TTITLE9=Въртят се колелата
TTITLE10=Психотрилър
TTITLE11=Карай да вървим
TTITLE12=Няма бира
TTITLE13=Кучето на крайния квартал
TTITLE14=Нека да е светлина
EXTD=Подуене блус бенд\n
EXTT0=
EXTT1=
EXTT2=
EXTT3=
EXTT4=
EXTT5=
EXTT6=
EXTT7=
EXTT8=
EXTT9=
EXTT10=
EXTT11=
EXTT12=
EXTT13=
EXTT14=
PLAYORDER=
